<svg xmlns="http://www.w3.org/2000/svg" viewBox="0 0 128 128">
  <defs>
    <linearGradient id="spfxGradient" x1="0%" y1="0%" x2="100%" y2="100%">
      <stop offset="0%" style="stop-color:#0078d4;stop-opacity:1" />
      <stop offset="100%" style="stop-color:#005a9e;stop-opacity:1" />
    </linearGradient>
  </defs>
  
  <!-- Background -->
  <rect width="128" height="128" rx="16" fill="url(#spfxGradient)"/>
  
  <!-- SharePoint-like logo -->
  <g fill="white">
    <!-- S shape -->
    <path d="M40 35 Q55 35 55 48 Q55 58 45 60 L60 60 Q75 60 75 75 Q75 90 55 90 L35 90 L35 80 L55 80 Q60 80 60 75 Q60 70 55 70 L45 70 Q30 70 30 55 Q30 45 40 45 L65 45 L65 35 Z" opacity="0.9"/>
    
    <!-- Beaker/Flask overlay -->
    <path d="M75 40 L75 65 L95 95 L55 95 L75 65 L75 40 M70 35 L80 35 L80 60 L100 100 L50 100 L70 60 Z" opacity="0.8"/>
    
    <!-- Bubbles in beaker -->
    <circle cx="72" cy="85" r="4" opacity="0.9"/>
    <circle cx="82" cy="80" r="3" opacity="0.9"/>
    <circle cx="77" cy="75" r="2" opacity="0.9"/>
  </g>
</svg>
